<?xml version="1.0" encoding="UTF-8"?>
<svg width="33px" height="33px" viewBox="0 0 33 33" version="1.1" xmlns="http://www.w3.org/2000/svg" xmlns:xlink="http://www.w3.org/1999/xlink">
    <title>streamline-icon-question-help-circle@140x140</title>
    <g id="📱Mobile" stroke="none" stroke-width="1" fill="none" fill-rule="evenodd" stroke-linecap="round" stroke-linejoin="round">
        <g id="Create-Account" transform="translate(-26.000000, -367.000000)" stroke="#000000" stroke-width="1.833333">
            <g id="streamline-icon-question-help-circle@140x140" transform="translate(27.000000, 368.000000)">
                <path d="M11,12.140082 C10.9961467,9.448914 13.0179546,7.21171368 15.6325131,7.01405232 C18.2470715,6.81639095 20.5663461,8.72540418 20.9465972,11.3881168 C21.3268483,14.0508295 19.6389236,16.5628517 17.0791062,17.1438377 C16.4566288,17.2699052 16.0052372,17.8262838 15.9970743,18.4775342 L15.9970743,20" id="Path"></path>
                <path d="M15.5,23.25 C15.6380712,23.25 15.75,23.3619288 15.75,23.5 C15.75,23.6380712 15.6380712,23.75 15.5,23.75 C15.3619288,23.75 15.25,23.6380712 15.25,23.5 C15.25,23.3619288 15.3619288,23.25 15.5,23.25" id="Path"></path>
                <path d="M0,15.5 C0,21.0376166 2.95428321,26.1545854 7.74999993,28.9233938 C12.5457167,31.6922021 18.4542833,31.6922021 23.2500001,28.9233938 C28.0457168,26.1545854 31,21.0376166 31,15.5 C31,9.96238338 28.0457168,4.84541458 23.2500001,2.07660625 C18.4542833,-0.692202083 12.5457167,-0.692202083 7.74999993,2.07660625 C2.95428321,4.84541458 0,9.96238338 0,15.5 Z" id="Path"></path>
            </g>
        </g>
    </g>
</svg>