<?xml version="1.0" encoding="UTF-8"?>
<svg width="32px" height="32px" viewBox="0 0 32 32" version="1.1" xmlns="http://www.w3.org/2000/svg" xmlns:xlink="http://www.w3.org/1999/xlink">
    <!-- Generator: Sketch 52.6 (67491) - http://www.bohemiancoding.com/sketch -->
    <title>icon-settings</title>
    <desc>Created with Sketch.</desc>
    <g id="Page-1" stroke="none" stroke-width="1" fill="none" fill-rule="evenodd">
        <g id="iPhone-XR" transform="translate(-91.000000, -200.000000)" stroke="#000000" stroke-width="1.8">
            <g id="icon-settings" transform="translate(92.000000, 201.000000)">
                <path d="M25.3335976,8.75447197 C25.0363642,9.37931344 25.0178387,10.1008689 25.2826166,10.7401432 C25.5473945,11.3794175 26.0706672,11.8765134 26.7226272,12.108117 L28.3725073,12.6951028 C29.348128,13.0414243 30,13.9646221 30,15 C30,16.0353779 29.348128,16.9585757 28.3725073,17.3048973 L26.7226272,17.891883 C26.0706672,18.1234865 25.5473945,18.6205825 25.2826166,19.2598568 C25.0178387,19.8991311 25.0363642,20.6206865 25.3335976,21.2455281 L26.0874558,22.8251718 C26.534086,23.7604568 26.3427578,24.8757364 25.6099473,25.6086365 C24.8771367,26.3415367 23.7619936,26.5328884 22.826823,26.0862035 L21.244764,25.3348619 C20.619999,25.0375923 19.8985317,25.0190644 19.2593357,25.2838747 C18.6201395,25.5486849 18.1231045,26.0720216 17.8915291,26.7240614 L17.3046153,28.3741435 C16.9577988,29.3489343 16.0351887,30 15.0006522,30 C13.9661155,30 13.0435054,29.3489343 12.696689,28.3741435 L12.1097751,26.7240614 C11.8779046,26.0719366 11.3806214,25.5485999 10.7412236,25.283809 C10.1018258,25.0190182 9.38018815,25.037569 8.755236,25.3348619 L7.17578546,26.0862035 C6.24056635,26.5346503 5.12419002,26.3439561 4.39081084,25.6104871 C3.65743165,24.8770183 3.46676078,23.7605053 3.91515263,22.8251718 L4.66640243,21.2429193 C4.96363573,20.6180777 4.98216124,19.8965223 4.71738339,19.257248 C4.45260553,18.6179737 3.92933288,18.1208777 3.27737285,17.8892742 L1.62749264,17.3022884 C0.651871895,16.9559669 0,16.032769 0,14.9973912 C0,13.9620133 0.651871895,13.0388154 1.62749264,12.6924939 L3.27737285,12.1055082 C3.92863608,11.8738144 4.45135163,11.3771556 4.71606556,10.7385329 C4.98077947,10.0999101 4.96273552,9.3790477 4.66640243,8.75447197 L3.91515263,7.17221935 C3.46676078,6.23688582 3.65743165,5.1203729 4.39081084,4.38690399 C5.12419002,3.65343507 6.24056635,3.46274087 7.17578546,3.91118759 L8.75784451,4.6625293 C9.38219002,4.95903607 10.102834,4.97746732 10.7415168,4.71326387 C11.3801996,4.44906043 11.8772712,3.92689765 12.1097751,3.2759386 L12.696689,1.62585653 C13.0435054,0.651065793 13.9661155,0 15.0006522,0 C16.0351887,0 16.9577988,0.651065793 17.3046153,1.62585653 L17.8915291,3.2759386 C18.1231045,3.92797839 18.6201395,4.45131507 19.2593357,4.71612532 C19.8985317,4.98093557 20.619999,4.96240779 21.244764,4.66513813 L22.826823,3.91118759 C23.7619936,3.46450274 24.8771367,3.65585447 25.6099473,4.38875464 C26.3427578,5.1216548 26.534086,6.23693439 26.0874558,7.17221935 L25.3335976,8.75447197 Z" id="Path"></path>
                <path d="M9.13043478,15 C9.13043478,18.2416714 11.7583286,20.8695652 15,20.8695652 C18.2416714,20.8695652 20.8695652,18.2416714 20.8695652,15 C20.8695652,11.7583286 18.2416714,9.13043478 15,9.13043478 C11.7583286,9.13043478 9.13043478,11.7583286 9.13043478,15 Z" id="Path"></path>
            </g>
        </g>
    </g>
</svg>