<?xml version="1.0" encoding="UTF-8"?>
<svg width="36px" height="33px" viewBox="0 0 36 33" version="1.1" xmlns="http://www.w3.org/2000/svg" xmlns:xlink="http://www.w3.org/1999/xlink">
    <!-- Generator: Sketch 52.6 (67491) - http://www.bohemiancoding.com/sketch -->
    <title>icon-home</title>
    <desc>Created with Sketch.</desc>
    <g id="Page-1" stroke="none" stroke-width="1" fill="none" fill-rule="evenodd" stroke-linecap="round" stroke-linejoin="round">
        <g id="iPhone-XR" transform="translate(-232.000000, -90.000000)" stroke="#000000" stroke-width="1.8">
            <g id="icon-home" transform="translate(233.000000, 90.000000)">
                <path d="M14.1666667,20.2469136 L19.8333333,20.2469136 C20.6157367,20.2469136 21.25,20.8659766 21.25,21.6296296 L21.25,31.308642 L12.75,31.308642 L12.75,21.6296296 C12.75,20.8659766 13.3842633,20.2469136 14.1666667,20.2469136 Z" id="Path"></path>
                <path d="M27.625,10.4296296 L27.625,3.65432099 C27.625,3.27249449 27.3078684,2.96296296 26.9166667,2.96296296 L24.0833333,2.96296296 C23.6921316,2.96296296 23.375,3.27249449 23.375,3.65432099 L23.375,6.61333333 L17.4788333,1.31891358 C17.207555,1.07469081 16.7896116,1.07469081 16.5183333,1.31891358 L0.935,15.5899259 C0.71988333,15.7830483 0.648384643,16.0853015 0.754984492,16.3509227 C0.86158434,16.6165439 1.12439173,16.790986 1.41666667,16.7901235 L4.95833333,16.7901235 L4.95833333,29.9259259 C4.95833333,30.6895789 5.5925966,31.308642 6.375,31.308642 L27.625,31.308642 C28.4074034,31.308642 29.0416667,30.6895789 29.0416667,29.9259259 L29.0416667,16.7901235 L32.5833333,16.7901235 C32.8753494,16.7904139 33.1376203,16.6157651 33.2438535,16.3502765 C33.3500868,16.0847879 33.2785074,15.7828777 33.0635833,15.5899259 L27.625,10.4296296 Z" id="Path"></path>
            </g>
        </g>
    </g>
</svg>