<?xml version="1.0" encoding="UTF-8"?>
<svg width="33px" height="34px" viewBox="0 0 33 34" version="1.1" xmlns="http://www.w3.org/2000/svg" xmlns:xlink="http://www.w3.org/1999/xlink">
    <title>streamline-icon-light-bulb-shine@140x140</title>
    <g id="📱Mobile" stroke="none" stroke-width="1" fill="none" fill-rule="evenodd" stroke-linecap="round" stroke-linejoin="round">
        <g id="Create-Account" transform="translate(-26.000000, -306.000000)" stroke="#000000" stroke-width="1.833333">
            <g id="streamline-icon-light-bulb-shine@140x140" transform="translate(27.000000, 307.000000)">
                <line x1="18" y1="31.5" x2="14" y2="31.5" id="Path"></line>
                <line x1="19" y1="28.5" x2="12" y2="28.5" id="Path"></line>
                <line x1="15.5" y1="0" x2="15.5" y2="4" id="Path"></line>
                <line x1="4" y1="5" x2="7" y2="8" id="Path"></line>
                <line x1="27" y1="5" x2="24" y2="8" id="Path"></line>
                <line x1="4.54747351e-13" y1="16.5" x2="4" y2="16.5" id="Path"></line>
                <line x1="31" y1="16.5" x2="27" y2="16.5" id="Path"></line>
                <path d="M24,16.3130639 C24.0041793,12.3707889 21.3369922,8.96895652 17.6171833,8.17218164 C13.8973743,7.37540676 10.1505964,9.40338202 8.65081625,13.0253037 C7.15103613,16.6472254 8.31178416,20.8644307 11.4285877,23.1174446 C11.7869346,23.3761426 12.0005826,23.8005225 12.0005608,24.2535838 L12.0005608,25.308076 C12.0005608,25.6902151 12.2990235,26 12.667196,26 L19.3335484,26 C19.7017209,26 20.0001836,25.6902151 20.0001836,25.308076 L20.0001836,24.2522 C20.0001618,23.7991386 20.2138098,23.3747588 20.5721567,23.1160608 C22.720379,21.568971 24.0012376,19.0269383 24,16.3130639 L24,16.3130639 Z" id="Path"></path>
            </g>
        </g>
    </g>
</svg>