<?xml version="1.0" encoding="UTF-8"?>
<svg width="22px" height="22px" viewBox="0 0 22 22" version="1.1" xmlns="http://www.w3.org/2000/svg" xmlns:xlink="http://www.w3.org/1999/xlink">
    <title>streamline-icon-question-circle@140x140</title>
    <g id="📱Mobile" stroke="none" stroke-width="1" fill="none" fill-rule="evenodd" stroke-linecap="round" stroke-linejoin="round">
        <g id="iPhone-12-Copy-4" transform="translate(-153.000000, -677.000000)" stroke="#000000">
            <g id="streamline-icon-question-circle@140x140" transform="translate(154.000000, 678.000000)">
                <path d="M0,10 C0,15.5228475 4.4771525,20 10,20 C15.5228475,20 20,15.5228475 20,10 C20,4.4771525 15.5228475,0 10,0 C4.4771525,0 0,4.4771525 0,10 Z" id="Path"></path>
                <path d="M10.5,14.25 C10.3619288,14.25 10.25,14.3619288 10.25,14.5 C10.25,14.6380712 10.3619288,14.75 10.5,14.75 C10.6380712,14.75 10.75,14.6380712 10.75,14.5 C10.75,14.3619288 10.6380712,14.25 10.5,14.25 L10.5,14.25" id="Path"></path>
                <path d="M8,8.62652432 C8.00018918,7.31467525 8.92146819,6.20410191 10.1582277,6.02484765 C11.3949871,5.84559339 12.567994,6.65262374 12.9061638,7.91543152 C13.2443336,9.1782393 12.6439717,10.5096041 11.4997305,11.0343438 C10.8924078,11.312857 10.4998175,11.9429818 10.4998075,12.6392649 L10.4998075,13" id="Path"></path>
            </g>
        </g>
    </g>
</svg>