<?xml version="1.0" encoding="UTF-8"?>
<svg width="33px" height="29px" viewBox="0 0 33 29" version="1.1" xmlns="http://www.w3.org/2000/svg" xmlns:xlink="http://www.w3.org/1999/xlink">
    <title>streamline-icon-shop@140x140</title>
    <g id="📱Mobile" stroke="none" stroke-width="1" fill="none" fill-rule="evenodd" stroke-linecap="round" stroke-linejoin="round">
        <g id="Create-Account" transform="translate(-26.000000, -248.000000)" stroke="#000000" stroke-width="1.833333">
            <g id="streamline-icon-shop@140x140" transform="translate(27.000000, 249.000000)">
                <path d="M29,11 L29,25.6844269 C29,26.4109979 28.387337,27 27.6315789,27 L4.36842105,27 C3.61266297,27 3,26.4109979 3,25.6844269 L3,11" id="Path"></path>
                <polygon id="Path" points="5 15 16 15 16 23 5 23"></polygon>
                <path d="M26,27 L19,27 L19,15.6666667 C19,15.2984768 19.3134007,15 19.7,15 L25.3,15 C25.6865993,15 26,15.2984768 26,15.6666667 L26,27 Z" id="Path"></path>
                <path d="M28.6763478,0.69125 C28.44821,0.267838236 27.9817668,0.000252772711 27.4713913,0 L3.5286087,0 C3.01823317,0.000252772711 2.55178999,0.267838236 2.32365217,0.69125 L0,5 L31,5 L28.6763478,0.69125 Z" id="Path"></path>
                <path d="M30.997661,6.40348218 C31.0540836,8.09591248 30.0852482,9.64340221 28.5754927,10.2723338 C27.0657373,10.9012653 25.3394049,10.4765244 24.2595197,9.21044655 C23.3744521,10.7692094 21.8288774,11.7951724 20.0984115,11.9726185 C18.3679456,12.1500646 16.6599181,11.4577337 15.4999361,10.1086751 C14.3399541,11.4577337 12.6319265,12.1500646 10.9014606,11.9726185 C9.17099471,11.7951724 7.62541998,10.7692094 6.74035241,9.21044655 C5.65982356,10.4748115 3.93436491,10.8984191 2.42535354,10.2697975 C0.916342165,9.64117591 -0.0526110515,8.09513443 0.00221112972,6.40348218 L0.00221112972,5 L30.997661,5 L30.997661,6.40348218 Z" id="Path"></path>
                <polyline id="Path" points="7 9 7 5.14285714 8 0"></polyline>
                <polyline id="Path" points="15.5 10 15.5 5.23217789 15.5 0"></polyline>
                <polyline id="Path" points="24 9 24 5.14285714 23 0"></polyline>
            </g>
        </g>
    </g>
</svg>