<?xml version="1.0" encoding="UTF-8"?>
<svg width="52px" height="53px" viewBox="0 0 52 53" version="1.1" xmlns="http://www.w3.org/2000/svg" xmlns:xlink="http://www.w3.org/1999/xlink">
    <title>streamline-icon-bread-wheat@140x140</title>
    <g id="📱Mobile" stroke="none" stroke-width="1" fill="none" fill-rule="evenodd" stroke-linecap="round" stroke-linejoin="round">
        <g id="iPhone-12-Copy-4" transform="translate(-66.000000, -168.000000)" stroke="#000000" stroke-width="1.833333">
            <g id="streamline-icon-bread-wheat@140x140" transform="translate(67.000000, 169.000000)">
                <line x1="37" y1="0" x2="37" y2="51" id="Path"></line>
                <path d="M37,13 C37,5.82029825 42.8202983,0 50,0 C50,7.17970175 44.1797017,13 37,13 Z" id="Path"></path>
                <path d="M37,27 C37,19.8202983 42.8202983,14 50,14 C50,21.1797017 44.1797017,27 37,27 Z" id="Path"></path>
                <path d="M37,42 C37,34.8202983 42.8202983,29 50,29 C50,36.1797017 44.1797017,42 37,42 Z" id="Path"></path>
                <path d="M37,13 C37,5.82029825 42.8202983,0 50,0 C50,7.17970175 44.1797017,13 37,13 Z" id="Path"></path>
                <path d="M37,27 C37,19.8202983 42.8202983,14 50,14 C50,21.1797017 44.1797017,27 37,27 Z" id="Path"></path>
                <path d="M37,42 C37,34.8202983 42.8202983,29 50,29 C50,36.1797017 44.1797017,42 37,42 Z" id="Path"></path>
                <path d="M37,13 C37,5.82029825 31.1797017,0 24,0 C24,7.17970175 29.8202983,13 37,13 Z" id="Path"></path>
                <path d="M37,27 C37,19.8202983 31.1797017,14 24,14 C24,21.1797017 29.8202983,27 37,27 Z" id="Path"></path>
                <path d="M37,42 C37,34.8202983 31.1797017,29 24,29 C24,36.1797017 29.8202983,42 37,42 Z" id="Path"></path>
                <line x1="13" y1="0" x2="13" y2="51" id="Path"></line>
                <path d="M22,38.473836 C19.5275314,40.7488563 16.3216369,42.0049082 13,42 L13,42 C12.9969085,37.0500653 15.5704078,32.4749596 19.7500007,30" id="Path"></path>
                <path d="M22,23.473836 C19.5275314,25.7488563 16.3216369,27.0049082 13,27 L13,27 C12.9969085,22.0500653 15.5704078,17.4749596 19.7500007,15" id="Path"></path>
                <path d="M22,9.47383597 C19.5275314,11.7488563 16.3216369,13.0049082 13,13 L13,13 C12.9969085,8.05006533 15.5704078,3.47495962 19.7500007,1" id="Path"></path>
                <path d="M13,13 C13,5.82029825 7.17970175,0 0,0 C0,7.17970175 5.82029825,13 13,13 Z" id="Path"></path>
                <path d="M13,27 C13,19.8202983 7.17970175,14 0,14 C0,21.1797017 5.82029825,27 13,27 Z" id="Path"></path>
                <path d="M13,42 C13,34.8202983 7.17970175,29 0,29 C0,36.1797017 5.82029825,42 13,42 Z" id="Path"></path>
            </g>
        </g>
    </g>
</svg>