<?xml version="1.0" encoding="UTF-8"?>
<svg width="33px" height="30px" viewBox="0 0 33 30" version="1.1" xmlns="http://www.w3.org/2000/svg" xmlns:xlink="http://www.w3.org/1999/xlink">
    <!-- Generator: Sketch 52.6 (67491) - http://www.bohemiancoding.com/sketch -->
    <title>icon-home</title>
    <desc>Created with Sketch.</desc>
    <g id="Page-1" stroke="none" stroke-width="1" fill="none" fill-rule="evenodd" stroke-linecap="round" stroke-linejoin="round">
        <g id="iPhone-XR" transform="translate(-234.000000, -92.000000)" stroke="#000000" stroke-width="1.62">
            <g id="icon-home" transform="translate(235.000000, 92.000000)">
                <path d="M12.9166667,18.3487654 L18.0833333,18.3487654 C18.7967011,18.3487654 19.375,18.9097913 19.375,19.6018519 L19.375,28.3734568 L11.625,28.3734568 L11.625,19.6018519 C11.625,18.9097913 12.2032989,18.3487654 12.9166667,18.3487654 Z" id="Path"></path>
                <path d="M25.1875,9.45185185 L25.1875,3.3117284 C25.1875,2.96569814 24.8983506,2.68518519 24.5416667,2.68518519 L21.9583333,2.68518519 C21.6016494,2.68518519 21.3125,2.96569814 21.3125,3.3117284 L21.3125,5.99333333 L15.9365833,1.19526543 C15.6892414,0.973938544 15.3081753,0.973938544 15.0608333,1.19526543 L0.8525,14.1283704 C0.656364212,14.3033875 0.591174233,14.5773045 0.688368213,14.8180237 C0.785562193,15.0587429 1.0251807,15.216831 1.29166667,15.2160494 L4.52083333,15.2160494 L4.52083333,27.1203704 C4.52083333,27.8124309 5.0991322,28.3734568 5.8125,28.3734568 L25.1875,28.3734568 C25.9008678,28.3734568 26.4791667,27.8124309 26.4791667,27.1203704 L26.4791667,15.2160494 L29.7083333,15.2160494 C29.9745833,15.2163126 30.2137126,15.0580372 30.3105723,14.8174381 C30.4074321,14.5768391 30.3421685,14.3032329 30.1462083,14.1283704 L25.1875,9.45185185 Z" id="Path"></path>
            </g>
        </g>
    </g>
</svg>