<?xml version="1.0" encoding="UTF-8"?>
<svg width="25px" height="25px" viewBox="0 0 25 25" version="1.1" xmlns="http://www.w3.org/2000/svg" xmlns:xlink="http://www.w3.org/1999/xlink">
    <title>streamline-icon-cog-1@140x140</title>
    <g id="📱Mobile" stroke="none" stroke-width="1" fill="none" fill-rule="evenodd" stroke-linecap="round" stroke-linejoin="round">
        <g id="Create-Account" transform="translate(-335.000000, -39.000000)" stroke="#000000" stroke-width="1.833333">
            <g id="streamline-icon-cog-1@140x140" transform="translate(336.000000, 40.000000)">
                <path d="M19.4224248,6.71176184 C19.1945459,7.19080697 19.180343,7.74399951 19.3833394,8.23410981 C19.5863358,8.72422012 19.9875115,9.10532696 20.4873475,9.28288972 L21.7522556,9.73291211 C22.5002315,9.99842526 23,10.7062103 23,11.5 C23,12.2937897 22.5002315,13.0015747 21.7522556,13.2670879 L20.4873475,13.7171103 C19.9875115,13.894673 19.5863358,14.2757799 19.3833394,14.7658902 C19.180343,15.2560005 19.1945459,15.809193 19.4224248,16.2882382 L20.0003828,17.4992984 C20.3427993,18.2163502 20.1961143,19.0713979 19.6342929,19.633288 C19.0724715,20.1951781 18.2175284,20.3418811 17.5005643,19.9994227 L16.2876524,19.4233941 C15.8086659,19.1954874 15.255541,19.1812827 14.7654907,19.3843039 C14.2754403,19.5873251 13.8943801,19.9885499 13.716839,20.4884471 L13.2668717,21.75351 C13.0009791,22.5008496 12.2936447,23 11.5005,23 C10.7073552,23 10.0000208,22.5008496 9.73412821,21.75351 L9.28416088,20.4884471 C9.10639354,19.9884847 8.7251431,19.5872599 8.2349381,19.3842536 C7.74473309,19.1812473 7.19147758,19.1954696 6.7123476,19.4233941 L5.50143552,19.9994227 C4.7844342,20.3432319 3.92854568,20.197033 3.36628831,19.6347068 C2.80403093,19.0723807 2.65784993,18.2163874 3.00161702,17.4992984 L3.5775752,16.2862381 C3.80545406,15.8071929 3.81965695,15.2540004 3.6166606,14.7638901 C3.41366424,14.2737798 3.01248854,13.8926729 2.51265252,13.7151102 L1.24774436,13.2650878 C0.499768453,12.9995746 0,12.2917896 0,11.4979999 C0,10.7042102 0.499768453,9.99642516 1.24774436,9.73091201 L2.51265252,9.28088962 C3.01195433,9.10325767 3.41270292,8.72248599 3.61565026,8.23287521 C3.81859759,7.74326442 3.8047639,7.19060324 3.5775752,6.71176184 L3.00161702,5.4987015 C2.65784993,4.78161246 2.80403093,3.92561922 3.36628831,3.36329306 C3.92854568,2.80096689 4.7844342,2.654768 5.50143552,2.99857715 L6.71434746,3.5746058 C7.19301235,3.80192765 7.74550609,3.81605828 8.23516289,3.6135023 C8.72481968,3.41094633 9.10590789,3.01062153 9.28416088,2.51155293 L9.73412821,1.24649001 C10.0000208,0.499150441 10.7073552,0 11.5005,0 C12.2936447,0 13.0009791,0.499150441 13.2668717,1.24649001 L13.716839,2.51155293 C13.8943801,3.0114501 14.2754403,3.41267489 14.7654907,3.61569608 C15.255541,3.81871727 15.8086659,3.80451264 16.2876524,3.5766059 L17.5005643,2.99857715 C18.2175284,2.65611877 19.0724715,2.80282176 19.6342929,3.36471189 C20.1961143,3.92660201 20.3427993,4.7816497 20.0003828,5.4987015 L19.4224248,6.71176184 Z" id="Path"></path>
                <path d="M7,11.5 C7,13.9852814 9.01471863,16 11.5,16 C13.9852814,16 16,13.9852814 16,11.5 C16,9.01471863 13.9852814,7 11.5,7 C9.01471863,7 7,9.01471863 7,11.5 L7,11.5 Z" id="Path"></path>
            </g>
        </g>
    </g>
</svg>