<?xml version="1.0" encoding="UTF-8"?>
<svg width="84px" height="84px" viewBox="0 0 84 84" version="1.1" xmlns="http://www.w3.org/2000/svg" xmlns:xlink="http://www.w3.org/1999/xlink">
    <title>Oval 2</title>
    <g id="💅-Brand-Guidelines" stroke="none" stroke-width="1" fill="none" fill-rule="evenodd">
        <g id="A4" transform="translate(-254.000000, -481.000000)">
            <g id="Oval-2" transform="translate(254.000000, 481.000000)">
                <circle id="Oval" fill="#D8D8D8" cx="42" cy="42" r="42"></circle>
                <rect id="Rectangle" fill="#FFDA00" x="0" y="0" width="84" height="84"></rect>
                <g id="avatar"></g>
                <path d="M41.7404834,65.784 C44.8643505,65.784 47.7633938,65.0976959 50.4376133,63.7250876 C53.1118328,62.3524794 55.2299094,60.4473938 56.7918429,58.0098308 C58.3537764,55.5722679 59.1347432,52.8862155 59.1347432,49.9516737 L59.1347432,49.9516737 L59.1347432,20.3459335 C59.1347432,19.9199517 58.9809164,19.5531339 58.6732628,19.2454804 C58.3656093,18.9378268 57.9987915,18.784 57.5728097,18.784 L57.5728097,18.784 L56.0818731,18.784 C55.6558912,18.784 55.2890735,18.9378268 54.9814199,19.2454804 C54.6737664,19.5531339 54.5199396,19.9199517 54.5199396,20.3459335 L54.5199396,20.3459335 L54.5199396,49.9516737 C54.5199396,53.1702034 53.2774924,55.9272528 50.7925982,58.2228218 C48.3077039,60.5183907 45.2903323,61.6661752 41.7404834,61.6661752 C38.5219537,61.6661752 35.7057402,60.6722175 33.2918429,58.6843021 C32.6292044,58.1636576 31.966566,58.1636576 31.3039275,58.6843021 L31.3039275,58.6843021 L30.1679758,59.6072628 C29.7893253,59.8912508 29.6,60.2817341 29.6,60.778713 C29.6,61.2756918 29.7893253,61.6898409 30.1679758,62.0211601 C33.1971803,64.52972 37.0546828,65.784 41.7404834,65.784 Z" id="J" fill="#000000" fill-rule="nonzero"></path>
            </g>
        </g>
    </g>
</svg>