<?xml version="1.0" encoding="UTF-8"?>
<svg width="273px" height="46px" viewBox="0 0 273 46" version="1.1" xmlns="http://www.w3.org/2000/svg" xmlns:xlink="http://www.w3.org/1999/xlink">
    <title>Crokett-Logo</title>
    <g id="💅-Brand-Guidelines" stroke="none" stroke-width="1" fill="none" fill-rule="evenodd">
        <g id="A4" transform="translate(-526.000000, -51.000000)" fill="#000000">
            <g id="Crokett-Logo" transform="translate(526.642777, 51.671053)">
                <path d="M21.5126579,45.2903684 C23.1793947,45.2903684 24.8247632,45.0980526 26.4487632,44.7134211 C28.0727632,44.3287895 29.5899211,43.7732105 31.0002368,43.0466842 C32.4105526,42.3201579 33.7460789,41.4547368 35.0068158,40.4504211 C36.2675526,39.4461053 37.3893947,38.3242632 38.3723421,37.0848947 C38.6287632,36.7857368 38.7356053,36.4331579 38.6928684,36.0271579 C38.6501316,35.6211579 38.4791842,35.3113158 38.1800263,35.0976316 L38.1800263,35.0976316 L37.1543421,34.2642632 C36.8551842,34.0078421 36.5132895,33.901 36.1286579,33.9437368 C35.7440263,33.9864737 35.4235,34.1574211 35.1670789,34.4565789 C33.5003421,36.5506842 31.4810263,38.1960526 29.1091316,39.3926842 C26.7372368,40.5893158 24.2050789,41.1876316 21.5126579,41.1876316 C16.6406579,41.1876316 12.5379211,39.4033684 9.20444737,35.8348421 C5.87097368,32.2663158 4.20423684,27.9178421 4.20423684,22.7894211 C4.20423684,17.6182632 5.87097368,13.2056842 9.20444737,9.55168421 C12.5379211,5.89768421 16.6406579,4.07068421 21.5126579,4.07068421 C23.2648684,4.07068421 24.9529737,4.32710526 26.5769737,4.83994737 C28.2009737,5.35278947 29.7074474,6.06863158 31.0963947,6.98747368 C32.4853421,7.90631579 33.7140263,9.00678947 34.7824474,10.2888947 C35.0388684,10.5453158 35.3593947,10.6948947 35.7440263,10.7376316 C36.1286579,10.7803684 36.4705526,10.6948947 36.7697105,10.4812105 L36.7697105,10.4812105 L37.7953947,9.64784211 C38.0945526,9.39142105 38.2655,9.07089474 38.3082368,8.68626316 C38.3509737,8.30163158 38.2441316,7.93836842 37.9877105,7.59647368 C36.6201316,6.01521053 35.0816053,4.65831579 33.3721316,3.52578947 C31.6626579,2.39326316 29.7929211,1.50647368 27.7629211,0.865421053 C25.7329211,0.224368421 23.6495,-0.0961578947 21.5126579,-0.0961578947 C17.5381316,-0.0961578947 13.8734474,0.918842105 10.5186053,2.94884211 C7.16376316,4.97884211 4.50339474,7.73536842 2.5375,11.2184211 C0.571605263,14.7014737 -0.411342105,18.4943684 -0.411342105,22.5971053 C-0.411342105,26.6998421 0.571605263,30.4927368 2.5375,33.9757895 C4.50339474,37.4588421 7.16376316,40.2153684 10.5186053,42.2453684 C13.8734474,44.2753684 17.5381316,45.2903684 21.5126579,45.2903684 Z M69.5916053,44.0723684 C70.1471842,44.0723684 70.5531842,43.8159474 70.8096053,43.3031053 C71.0660263,42.7902632 71.0446579,42.2987895 70.7455,41.8286842 L70.7455,41.8286842 L64.1426579,32.5334211 C63.9289737,32.2342632 63.9930789,31.9992105 64.3349737,31.8282632 C65.5316053,31.1872105 66.6320789,30.4072632 67.6363947,29.4884211 C68.6407105,28.5695789 69.4954474,27.5438947 70.2006053,26.4113684 C70.9057632,25.2788421 71.4613421,24.0287895 71.8673421,22.6612105 C72.2733421,21.2936316 72.4763421,19.9046842 72.4763421,18.4943684 L72.4763421,18.4943684 L72.4763421,16.5712105 C72.4763421,12.4257368 71.0126053,8.88926316 68.0851316,5.96178947 C65.1576579,3.03431579 61.6211842,1.57057895 57.4757105,1.57057895 L57.4757105,1.57057895 L46.5137105,1.57057895 C46.1290789,1.57057895 45.7978684,1.70947368 45.5200789,1.98726316 C45.2422895,2.26505263 45.1033947,2.59626316 45.1033947,2.98089474 L45.1033947,2.98089474 L45.1033947,42.5979474 C45.1033947,42.9825789 45.2422895,43.3137895 45.5200789,43.5915789 C45.7978684,43.8693684 46.1290789,44.0082632 46.5137105,44.0082632 L46.5137105,44.0082632 L47.7958158,44.0082632 C48.1804474,44.0082632 48.5116579,43.8693684 48.7894474,43.5915789 C49.0672368,43.3137895 49.2061316,42.9825789 49.2061316,42.5979474 L49.2061316,42.5979474 L49.2061316,34.0078421 C49.2061316,33.6659474 49.3770789,33.495 49.7189737,33.495 L49.7189737,33.495 L57.4757105,33.495 C58.0312895,33.495 58.6509737,33.4522632 59.3347632,33.3667895 C59.5484474,33.3240526 59.7193947,33.3881579 59.8476053,33.5591053 L59.8476053,33.5591053 L66.8350789,43.4313158 C67.0915,43.8586842 67.4761316,44.0723684 67.9889737,44.0723684 L67.9889737,44.0723684 L69.5916053,44.0723684 Z M57.3475,29.3922632 L49.7189737,29.3922632 C49.3770789,29.3922632 49.2061316,29.2213158 49.2061316,28.8794211 L49.2061316,28.8794211 L49.2061316,6.18615789 C49.2061316,5.84426316 49.3770789,5.67331579 49.7189737,5.67331579 L49.7189737,5.67331579 L57.3475,5.67331579 C60.2963421,5.67331579 62.8285,6.74173684 64.9439737,8.87857895 C67.0594474,11.0154211 68.1171842,13.5796316 68.1171842,16.5712105 L68.1171842,16.5712105 L68.1171842,18.4943684 C68.1171842,21.4859474 67.0594474,24.0501579 64.9439737,26.187 C62.8285,28.3238421 60.2963421,29.3922632 57.3475,29.3922632 L57.3475,29.3922632 Z M100.810868,45.2903684 C104.785395,45.2903684 108.460763,44.2753684 111.836974,42.2453684 C115.213184,40.2153684 117.873553,37.4588421 119.818079,33.9757895 C121.762605,30.4927368 122.734868,26.6998421 122.734868,22.5971053 C122.734868,18.4943684 121.762605,14.7014737 119.818079,11.2184211 C117.873553,7.73536842 115.213184,4.97884211 111.836974,2.94884211 C108.460763,0.918842105 104.785395,-0.0961578947 100.810868,-0.0961578947 C96.8363421,-0.0961578947 93.1609737,0.929526316 89.7847632,2.98089474 C86.4512895,4.98952632 83.8016053,7.73536842 81.8357105,11.2184211 C79.8698158,14.7014737 78.8868684,18.4943684 78.8868684,22.5971053 C78.8868684,26.6998421 79.8698158,30.4927368 81.8357105,33.9757895 C83.8016053,37.4588421 86.4619737,40.2153684 89.8168158,42.2453684 C93.1716579,44.2753684 96.8363421,45.2903684 100.810868,45.2903684 Z M100.810868,41.1876316 C95.9388684,41.1876316 91.7720263,39.3713158 88.3103421,35.7386842 C84.8486579,32.1060526 83.1178158,27.7255263 83.1178158,22.5971053 C83.1178158,19.2636316 83.9084474,16.1652105 85.4897105,13.3018421 C87.0709737,10.4384737 89.2185,8.18410526 91.9322895,6.53873684 C94.6460789,4.89336842 97.6056053,4.07068421 100.810868,4.07068421 C105.682868,4.07068421 109.860395,5.87631579 113.343447,9.48757895 C116.8265,13.0988421 118.568026,17.4686842 118.568026,22.5971053 C118.568026,27.7255263 116.8265,32.1060526 113.343447,35.7386842 C109.860395,39.3713158 105.682868,41.1876316 100.810868,41.1876316 Z M155.364447,44.0723684 C156.0055,44.0723684 156.443553,43.7518421 156.678605,43.1107895 C156.913658,42.4697368 156.753395,41.9355263 156.197816,41.5081579 L156.197816,41.5081579 L138.184237,27.0203684 C137.927816,26.8066842 137.906447,26.5716316 138.120132,26.3152105 L138.120132,26.3152105 L157.351711,3.81426316 C157.736342,3.34415789 157.811132,2.83131579 157.576079,2.27573684 C157.341026,1.72015789 156.902974,1.44236842 156.261921,1.44236842 L156.261921,1.44236842 L154.851605,1.44236842 C154.424237,1.44236842 154.060974,1.61331579 153.761816,1.95521053 L153.761816,1.95521053 L134.145605,24.7125789 C133.974658,24.8835263 133.782342,24.9369474 133.568658,24.8728421 C133.354974,24.8087368 133.248132,24.6484737 133.248132,24.3920526 L133.248132,24.3920526 L133.248132,2.85268421 C133.248132,2.46805263 133.109237,2.13684211 132.831447,1.85905263 C132.553658,1.58126316 132.222447,1.44236842 131.837816,1.44236842 L131.837816,1.44236842 L130.555711,1.44236842 C130.171079,1.44236842 129.839868,1.58126316 129.562079,1.85905263 C129.284289,2.13684211 129.145395,2.46805263 129.145395,2.85268421 L129.145395,2.85268421 L129.145395,42.2133158 C129.145395,42.5979474 129.284289,42.9291579 129.562079,43.2069474 C129.839868,43.4847368 130.171079,43.6236316 130.555711,43.6236316 L130.555711,43.6236316 L131.837816,43.6236316 C132.222447,43.6236316 132.553658,43.4847368 132.831447,43.2069474 C133.109237,42.9291579 133.248132,42.5979474 133.248132,42.2133158 L133.248132,42.2133158 L133.248132,29.1999474 C133.248132,28.9862632 133.344289,28.8366842 133.536605,28.7512105 C133.728921,28.6657368 133.910553,28.6871053 134.0815,28.8153158 L134.0815,28.8153158 L153.056658,43.7518421 C153.313079,43.9655263 153.612237,44.0723684 153.954132,44.0723684 L153.954132,44.0723684 L155.364447,44.0723684 Z M189.340237,44.0723684 C189.724868,44.0723684 190.056079,43.9334737 190.333868,43.6556842 C190.611658,43.3778947 190.750553,43.0466842 190.750553,42.6620526 L190.750553,42.6620526 L190.750553,41.3158421 C190.750553,40.9312105 190.611658,40.6 190.333868,40.3222105 C190.056079,40.0444211 189.724868,39.9055263 189.340237,39.9055263 L189.340237,39.9055263 L168.762447,39.9055263 C168.420553,39.9055263 168.249605,39.7559474 168.249605,39.4567895 L168.249605,39.4567895 L168.249605,29.4563684 C168.249605,29.1144737 168.420553,28.9435263 168.762447,28.9435263 L168.762447,28.9435263 L185.109289,28.9435263 C185.536658,28.9435263 185.878553,28.8046316 186.134974,28.5268421 C186.391395,28.2490526 186.519605,27.9178421 186.519605,27.5332105 L186.519605,27.5332105 L186.519605,26.2511053 C186.519605,25.8664737 186.391395,25.5352632 186.134974,25.2574737 C185.878553,24.9796842 185.536658,24.8407895 185.109289,24.8407895 L185.109289,24.8407895 L168.762447,24.8407895 C168.420553,24.8407895 168.249605,24.6698421 168.249605,24.3279474 L168.249605,24.3279474 L168.249605,6.12205263 C168.249605,5.78015789 168.420553,5.60921053 168.762447,5.60921053 L168.762447,5.60921053 L189.340237,5.60921053 C189.724868,5.60921053 190.056079,5.47031579 190.333868,5.19252632 C190.611658,4.91473684 190.750553,4.58352632 190.750553,4.19889474 L190.750553,4.19889474 L190.750553,2.91678947 C190.750553,2.53215789 190.611658,2.20094737 190.333868,1.92315789 C190.056079,1.64536842 189.724868,1.50647368 189.340237,1.50647368 L189.340237,1.50647368 L165.557184,1.50647368 C165.172553,1.50647368 164.841342,1.64536842 164.563553,1.92315789 C164.285763,2.20094737 164.146868,2.53215789 164.146868,2.91678947 L164.146868,2.91678947 L164.146868,42.6620526 C164.146868,43.0466842 164.285763,43.3778947 164.563553,43.6556842 C164.841342,43.9334737 165.172553,44.0723684 165.557184,44.0723684 L165.557184,44.0723684 L189.340237,44.0723684 Z M214.790026,44.0082632 C215.174658,44.0082632 215.505868,43.8693684 215.783658,43.5915789 C216.061447,43.3137895 216.200342,42.9825789 216.200342,42.5979474 L216.200342,42.5979474 L216.200342,6.12205263 C216.200342,5.78015789 216.371289,5.60921053 216.713184,5.60921053 L216.713184,5.60921053 L229.662447,5.60921053 C230.047079,5.60921053 230.388974,5.47031579 230.688132,5.19252632 C230.987289,4.91473684 231.136868,4.58352632 231.136868,4.19889474 L231.136868,4.19889474 L231.136868,2.91678947 C231.136868,2.66036842 231.072763,2.42531579 230.944553,2.21163158 C230.816342,1.99794737 230.634711,1.827 230.399658,1.69878947 C230.164605,1.57057895 229.918868,1.50647368 229.662447,1.50647368 L229.662447,1.50647368 L198.571395,1.50647368 C198.186763,1.50647368 197.855553,1.64536842 197.577763,1.92315789 C197.299974,2.20094737 197.161079,2.53215789 197.161079,2.91678947 L197.161079,2.91678947 L197.161079,4.19889474 C197.161079,4.45531579 197.225184,4.69036842 197.353395,4.90405263 C197.481605,5.11773684 197.652553,5.28868421 197.866237,5.41689474 C198.079921,5.54510526 198.314974,5.60921053 198.571395,5.60921053 L198.571395,5.60921053 L211.584763,5.60921053 C211.926658,5.60921053 212.097605,5.78015789 212.097605,6.12205263 L212.097605,6.12205263 L212.097605,42.5979474 C212.097605,42.9825789 212.2365,43.3137895 212.514289,43.5915789 C212.792079,43.8693684 213.123289,44.0082632 213.507921,44.0082632 L213.507921,44.0082632 L214.790026,44.0082632 Z M255.176342,44.0082632 C255.560974,44.0082632 255.892184,43.8693684 256.169974,43.5915789 C256.447763,43.3137895 256.586658,42.9825789 256.586658,42.5979474 L256.586658,42.5979474 L256.586658,6.12205263 C256.586658,5.78015789 256.757605,5.60921053 257.0995,5.60921053 L257.0995,5.60921053 L270.048763,5.60921053 C270.433395,5.60921053 270.775289,5.47031579 271.074447,5.19252632 C271.373605,4.91473684 271.523184,4.58352632 271.523184,4.19889474 L271.523184,4.19889474 L271.523184,2.91678947 C271.523184,2.66036842 271.459079,2.42531579 271.330868,2.21163158 C271.202658,1.99794737 271.021026,1.827 270.785974,1.69878947 C270.550921,1.57057895 270.305184,1.50647368 270.048763,1.50647368 L270.048763,1.50647368 L238.957711,1.50647368 C238.573079,1.50647368 238.241868,1.64536842 237.964079,1.92315789 C237.686289,2.20094737 237.547395,2.53215789 237.547395,2.91678947 L237.547395,2.91678947 L237.547395,4.19889474 C237.547395,4.45531579 237.6115,4.69036842 237.739711,4.90405263 C237.867921,5.11773684 238.038868,5.28868421 238.252553,5.41689474 C238.466237,5.54510526 238.701289,5.60921053 238.957711,5.60921053 L238.957711,5.60921053 L251.971079,5.60921053 C252.312974,5.60921053 252.483921,5.78015789 252.483921,6.12205263 L252.483921,6.12205263 L252.483921,42.5979474 C252.483921,42.9825789 252.622816,43.3137895 252.900605,43.5915789 C253.178395,43.8693684 253.509605,44.0082632 253.894237,44.0082632 L253.894237,44.0082632 L255.176342,44.0082632 Z" id="CROKETT" fill-rule="nonzero"></path>
                <path d="M100.220114,10.2930439 L102.226693,10.2930439 C102.778978,10.2930439 103.226693,10.7407592 103.226693,11.2930439 L103.226693,34.6680439 C103.226693,35.2203287 102.778978,35.6680439 102.226693,35.6680439 L100.220114,35.6680439 C99.6678292,35.6680439 99.220114,35.2203287 99.220114,34.6680439 L99.220114,11.2930439 C99.220114,10.7407592 99.6678292,10.2930439 100.220114,10.2930439 Z" id="Rectangle" transform="translate(101.223403, 22.980544) rotate(45.000000) translate(-101.223403, -22.980544) "></path>
            </g>
        </g>
    </g>
</svg>