<?xml version="1.0" encoding="UTF-8"?>
<svg width="84px" height="84px" viewBox="0 0 84 84" version="1.1" xmlns="http://www.w3.org/2000/svg" xmlns:xlink="http://www.w3.org/1999/xlink">
    <title>Oval 2</title>
    <g id="💅-Brand-Guidelines" stroke="none" stroke-width="1" fill="none" fill-rule="evenodd">
        <g id="A4" transform="translate(-254.000000, -371.000000)">
            <g id="avatar" transform="translate(254.000000, 371.000000)">
                <rect id="Rectangle" fill="#FFDA00" x="0" y="0" width="84" height="84"></rect>
                <path d="M57.104,65 C57.728,65 58.184,64.712 58.472,64.136 C58.76,63.56 58.736,63.008 58.4,62.48 L58.4,62.48 L50.984,52.04 C50.744,51.704 50.816,51.44 51.2,51.248 C52.544,50.528 53.78,49.652 54.908,48.62 C56.036,47.588 56.996,46.436 57.788,45.164 C58.58,43.892 59.204,42.488 59.66,40.952 C60.116,39.416 60.344,37.856 60.344,36.272 L60.344,36.272 L60.344,34.112 C60.344,29.456 58.7,25.484 55.412,22.196 C52.124,18.908 48.152,17.264 43.496,17.264 L43.496,17.264 L31.184,17.264 C30.752,17.264 30.38,17.42 30.068,17.732 C29.756,18.044 29.6,18.416 29.6,18.848 L29.6,18.848 L29.6,63.344 C29.6,63.776 29.756,64.148 30.068,64.46 C30.38,64.772 30.752,64.928 31.184,64.928 L31.184,64.928 L32.624,64.928 C33.056,64.928 33.428,64.772 33.74,64.46 C34.052,64.148 34.208,63.776 34.208,63.344 L34.208,63.344 L34.208,53.696 C34.208,53.312 34.4,53.12 34.784,53.12 L34.784,53.12 L43.496,53.12 C44.12,53.12 44.816,53.072 45.584,52.976 C45.824,52.928 46.016,53 46.16,53.192 L46.16,53.192 L54.008,64.28 C54.296,64.76 54.728,65 55.304,65 L55.304,65 L57.104,65 Z M43.352,48.512 L34.784,48.512 C34.4,48.512 34.208,48.32 34.208,47.936 L34.208,47.936 L34.208,22.448 C34.208,22.064 34.4,21.872 34.784,21.872 L34.784,21.872 L43.352,21.872 C46.664,21.872 49.508,23.072 51.884,25.472 C54.26,27.872 55.448,30.752 55.448,34.112 L55.448,34.112 L55.448,36.272 C55.448,39.632 54.26,42.512 51.884,44.912 C49.508,47.312 46.664,48.512 43.352,48.512 L43.352,48.512 Z" id="R" fill="#000000" fill-rule="nonzero"></path>
            </g>
        </g>
    </g>
</svg>